<svg width="24" height="24" viewBox="0 0 24 24" fill="none" xmlns="http://www.w3.org/2000/svg">
<path d="M18.25 9.5C20.3211 9.5 22 7.82107 22 5.75C22 3.67893 20.3211 2 18.25 2C16.1789 2 14.5 3.67893 14.5 5.75C14.5 7.82107 16.1789 9.5 18.25 9.5Z" stroke="black" stroke-width="1.5" stroke-linecap="round" stroke-linejoin="round"/>
<path d="M5.75 22C7.82107 22 9.5 20.3211 9.5 18.25C9.5 16.1789 7.82107 14.5 5.75 14.5C3.67893 14.5 2 16.1789 2 18.25C2 20.3211 3.67893 22 5.75 22Z" stroke="black" stroke-width="1.5" stroke-linecap="round" stroke-linejoin="round"/>
<path d="M14.5 14.5H22V20.75C22 21.0815 21.8683 21.3995 21.6339 21.6339C21.3995 21.8683 21.0815 22 20.75 22H15.75C15.4185 22 15.1005 21.8683 14.8661 21.6339C14.6317 21.3995 14.5 21.0815 14.5 20.75V14.5ZM2 2H9.5V8.25C9.5 8.58152 9.3683 8.89946 9.13388 9.13388C8.89946 9.3683 8.58152 9.5 8.25 9.5H3.25C2.91848 9.5 2.60054 9.3683 2.36612 9.13388C2.1317 8.89946 2 8.58152 2 8.25V2Z" stroke="black" stroke-width="1.5" stroke-linecap="round" stroke-linejoin="round"/>
</svg>
