<svg width="24" height="24" viewBox="0 0 24 24" fill="none" xmlns="http://www.w3.org/2000/svg">
<path d="M6.73685 17.2631V13.0526M12 17.2631V6.73682M17.2632 17.2631V10.9473" stroke="black" stroke-width="1.5" stroke-linecap="round"/>
<path d="M2 12C2 7.28632 2 4.92842 3.46421 3.46421C4.92842 2 7.28526 2 12 2C16.7137 2 19.0716 2 20.5358 3.46421C22 4.92842 22 7.28526 22 12C22 16.7137 22 19.0716 20.5358 20.5358C19.0716 22 16.7147 22 12 22C7.28632 22 4.92842 22 3.46421 20.5358C2 19.0716 2 16.7147 2 12Z" stroke="black" stroke-width="1.5" stroke-linejoin="round"/>
</svg>
